HIERARCHY
ROOT Hips
{
	OFFSET 0.000000 100.481300 0.000000
	CHANNELS 6 Xposition Yposition Zposition Xrotation Yrotation Zrotation
	JOINT Spine
	{
		OFFSET -0.279200 12.230698 -2.892100
		CHANNELS 3 Xrotation Yrotation Zrotation
		JOINT Spine1
		{
			OFFSET -0.325700 14.269203 -3.374200
			CHANNELS 3 Xrotation Yrotation Zrotation
			JOINT Spine2
			{
				OFFSET -0.372300 16.307602 -0.352600
				CHANNELS 3 Xrotation Yrotation Zrotation
				JOINT Neck
				{
					OFFSET -0.418800 17.814194 8.416900
					CHANNELS 3 Xrotation Yrotation Zrotation
					JOINT Head
					{
						OFFSET 0.000000 7.031097 3.806800
						CHANNELS 3 Xrotation Yrotation Zrotation
						JOINT HeadTop_End
						{
							OFFSET 0.000000 24.646606 12.978600
							CHANNELS 3 Xrotation Yrotation Zrotation
							End Site
							{
								OFFSET 0.000000 27.854965 0.000000
							}
						}
					}
				}
				JOINT LeftShoulder
				{
					OFFSET 16.952999 14.495407 -7.737500
					CHANNELS 3 Xrotation Yrotation Zrotation
					JOINT LeftArm
					{
						OFFSET 9.308998 -2.777710 0.208600
						CHANNELS 3 Xrotation Yrotation Zrotation
						JOINT LeftForeArm
						{
							OFFSET 29.972298 0.000000 0.000000
							CHANNELS 3 Xrotation Yrotation Zrotation
							JOINT LeftHand
							{
								OFFSET 26.026505 0.000000 0.000000
								CHANNELS 3 Xrotation Yrotation Zrotation
								JOINT LeftHandThumb1
								{
									OFFSET 12.240501 -7.147949 9.207150
									CHANNELS 3 Xrotation Yrotation Zrotation
									JOINT LeftHandThumb2
									{
										OFFSET 4.138618 -2.389435 2.389433
										CHANNELS 3 Xrotation Yrotation Zrotation
										JOINT LeftHandThumb3
										{
											OFFSET 2.726913 -1.574387 1.574386
											CHANNELS 3 Xrotation Yrotation Zrotation
											JOINT LeftHandThumb4
											{
												OFFSET 3.941010 -2.275345 2.275342
												CHANNELS 3 Xrotation Yrotation Zrotation
												End Site
												{
													OFFSET -0.005798 5.087799 0.009903
												}
											}
										}
									}
								}
								JOINT LeftHandIndex1
								{
									OFFSET 24.424698 -1.985611 5.953459
									CHANNELS 3 Xrotation Yrotation Zrotation
									JOINT LeftHandIndex2
									{
										OFFSET 6.426697 0.000000 0.000000
										CHANNELS 3 Xrotation Yrotation Zrotation
										JOINT LeftHandIndex3
										{
											OFFSET 5.337898 0.000000 0.000000
											CHANNELS 3 Xrotation Yrotation Zrotation
											JOINT LeftHandIndex4
											{
												OFFSET 4.409401 0.000000 0.000000
												CHANNELS 3 Xrotation Yrotation Zrotation
												End Site
												{
													OFFSET 0.000000 4.409363 0.014373
												}
											}
										}
									}
								}
								JOINT LeftHandMiddle1
								{
									OFFSET 23.810104 0.000000 0.000000
									CHANNELS 3 Xrotation Yrotation Zrotation
									JOINT LeftHandMiddle2
									{
										OFFSET 7.176498 0.000000 0.000000
										CHANNELS 3 Xrotation Yrotation Zrotation
										JOINT LeftHandMiddle3
										{
											OFFSET 6.774902 0.000000 0.000000
											CHANNELS 3 Xrotation Yrotation Zrotation
											JOINT LeftHandMiddle4
											{
												OFFSET 5.403328 0.000000 0.000000
												CHANNELS 3 Xrotation Yrotation Zrotation
												End Site
												{
													OFFSET -0.027702 5.403244 0.017414
												}
											}
										}
									}
								}
								JOINT LeftHandRing1
								{
									OFFSET 22.908401 -0.839279 -6.020567
									CHANNELS 3 Xrotation Yrotation Zrotation
									JOINT LeftHandRing2
									{
										OFFSET 6.337502 0.000000 0.000000
										CHANNELS 3 Xrotation Yrotation Zrotation
										JOINT LeftHandRing3
										{
											OFFSET 5.779297 0.000000 0.000000
											CHANNELS 3 Xrotation Yrotation Zrotation
											JOINT LeftHandRing4
											{
												OFFSET 4.965698 0.000000 0.000000
												CHANNELS 3 Xrotation Yrotation Zrotation
												End Site
												{
													OFFSET 0.000000 4.965668 0.016186
												}
											}
										}
									}
								}
								JOINT LeftHandPinky1
								{
									OFFSET 20.037003 -1.530319 -10.950146
									CHANNELS 3 Xrotation Yrotation Zrotation
									JOINT LeftHandPinky2
									{
										OFFSET 5.254700 0.000000 0.000000
										CHANNELS 3 Xrotation Yrotation Zrotation
										JOINT LeftHandPinky3
										{
											OFFSET 4.810204 0.000000 0.000000
											CHANNELS 3 Xrotation Yrotation Zrotation
											JOINT LeftHandPinky4
											{
												OFFSET 3.647202 0.000000 0.000000
												CHANNELS 3 Xrotation Yrotation Zrotation
												End Site
												{
													OFFSET 0.000000 3.647186 0.011889
												}
											}
										}
									}
								}
							}
						}
					}
				}
				JOINT RightShoulder
				{
					OFFSET -15.141001 14.495407 -7.737500
					CHANNELS 3 Xrotation Yrotation Zrotation
					JOINT RightArm
					{
						OFFSET -9.308998 -2.777710 0.208500
						CHANNELS 3 Xrotation Yrotation Zrotation
						JOINT RightForeArm
						{
							OFFSET -29.972300 0.000000 0.000000
							CHANNELS 3 Xrotation Yrotation Zrotation
							JOINT RightHand
							{
								OFFSET -26.026505 0.000000 0.000000
								CHANNELS 3 Xrotation Yrotation Zrotation
								JOINT RightHandThumb1
								{
									OFFSET -12.240601 -7.148026 9.207092
									CHANNELS 3 Xrotation Yrotation Zrotation
									JOINT RightHandThumb2
									{
										OFFSET -4.138618 -2.389435 2.389433
										CHANNELS 3 Xrotation Yrotation Zrotation
										JOINT RightHandThumb3
										{
											OFFSET -2.726974 -1.574417 1.574421
											CHANNELS 3 Xrotation Yrotation Zrotation
											JOINT RightHandThumb4
											{
												OFFSET -3.941010 -2.275345 2.275343
												CHANNELS 3 Xrotation Yrotation Zrotation
												End Site
												{
													OFFSET 0.005814 5.087799 0.009927
												}
											}
										}
									}
								}
								JOINT RightHandIndex1
								{
									OFFSET -24.424698 -1.985657 5.953444
									CHANNELS 3 Xrotation Yrotation Zrotation
									JOINT RightHandIndex2
									{
										OFFSET -6.426697 0.000000 0.000000
										CHANNELS 3 Xrotation Yrotation Zrotation
										JOINT RightHandIndex3
										{
											OFFSET -5.337898 0.000000 0.000000
											CHANNELS 3 Xrotation Yrotation Zrotation
											JOINT RightHandIndex4
											{
												OFFSET -4.409401 0.000000 0.000000
												CHANNELS 3 Xrotation Yrotation Zrotation
												End Site
												{
													OFFSET 0.000000 4.409363 0.014408
												}
											}
										}
									}
								}
								JOINT RightHandMiddle1
								{
									OFFSET -23.810097 0.000000 0.000000
									CHANNELS 3 Xrotation Yrotation Zrotation
									JOINT RightHandMiddle2
									{
										OFFSET -7.176498 0.000000 0.000000
										CHANNELS 3 Xrotation Yrotation Zrotation
										JOINT RightHandMiddle3
										{
											OFFSET -6.774902 0.000000 0.000000
											CHANNELS 3 Xrotation Yrotation Zrotation
											JOINT RightHandMiddle4
											{
												OFFSET -5.403328 0.000000 0.000000
												CHANNELS 3 Xrotation Yrotation Zrotation
												End Site
												{
													OFFSET 0.027702 5.403244 0.017457
												}
											}
										}
									}
								}
								JOINT RightHandRing1
								{
									OFFSET -22.908302 -0.839325 -6.020576
									CHANNELS 3 Xrotation Yrotation Zrotation
									JOINT RightHandRing2
									{
										OFFSET -6.337502 0.000000 0.000000
										CHANNELS 3 Xrotation Yrotation Zrotation
										JOINT RightHandRing3
										{
											OFFSET -5.779297 0.000000 0.000000
											CHANNELS 3 Xrotation Yrotation Zrotation
											JOINT RightHandRing4
											{
												OFFSET -4.965698 0.000000 0.000000
												CHANNELS 3 Xrotation Yrotation Zrotation
												End Site
												{
													OFFSET 0.000000 4.965668 0.016226
												}
											}
										}
									}
								}
								JOINT RightHandPinky1
								{
									OFFSET -20.037003 -1.530334 -10.950259
									CHANNELS 3 Xrotation Yrotation Zrotation
									JOINT RightHandPinky2
									{
										OFFSET -5.254700 0.000000 0.000000
										CHANNELS 3 Xrotation Yrotation Zrotation
										JOINT RightHandPinky3
										{
											OFFSET -4.810204 0.000000 0.000000
											CHANNELS 3 Xrotation Yrotation Zrotation
											JOINT RightHandPinky4
											{
												OFFSET -3.647202 0.000000 0.000000
												CHANNELS 3 Xrotation Yrotation Zrotation
												End Site
												{
													OFFSET 0.000000 3.647186 0.011917
												}
											}
										}
									}
								}
							}
						}
					}
				}
			}
		}
	}
	JOINT LeftUpLeg
	{
		OFFSET 15.427100 -6.655098 0.678600
		CHANNELS 3 Xrotation Yrotation Zrotation
		JOINT LeftLeg
		{
			OFFSET 4.081073 -39.591068 13.024000
			CHANNELS 3 Xrotation Yrotation Zrotation
			JOINT LeftFoot
			{
				OFFSET -4.081074 -37.707932 -15.979700
				CHANNELS 3 Xrotation Yrotation Zrotation
				JOINT LeftToeBase
				{
					OFFSET 5.346399 -15.068900 20.645000
					CHANNELS 3 Xrotation Yrotation Zrotation
					JOINT LeftToe_End
					{
						OFFSET 2.754700 0.931300 11.300900
						CHANNELS 3 Xrotation Yrotation Zrotation
						End Site
						{
							OFFSET 0.000000 11.669021 0.000000
						}
					}
				}
			}
		}
	}
	JOINT RightUpLeg
	{
		OFFSET -15.569500 -6.655098 0.678600
		CHANNELS 3 Xrotation Yrotation Zrotation
		JOINT RightLeg
		{
			OFFSET -4.081825 -39.591045 13.023800
			CHANNELS 3 Xrotation Yrotation Zrotation
			JOINT RightFoot
			{
				OFFSET 4.081824 -37.707954 -15.979600
				CHANNELS 3 Xrotation Yrotation Zrotation
				JOINT RightToeBase
				{
					OFFSET -5.346400 -15.068900 20.645000
					CHANNELS 3 Xrotation Yrotation Zrotation
					JOINT RightToe_End
					{
						OFFSET -2.754700 0.931300 11.300900
						CHANNELS 3 Xrotation Yrotation Zrotation
						End Site
						{
							OFFSET 0.000000 11.669021 0.000000
						}
					}
				}
			}
		}
	}
}
MOTION
Frames: 4
Frame Time: 0.033333
1.488173 81.889778 4.032362 0.668435 -0.531940 -1.355685 11.819719 1.167822 -0.865784 1.726803 3.315996 -1.015325 3.485489 3.075253 -1.297135 1.381439 1.466699 -11.666651 -12.972085 2.410002 -1.286336 0.000000 0.000002 0.000001 -0.907839 5.301377 22.797838 -73.882375 47.119351 10.758491 -4.580785 -41.393351 -17.219004 -56.154954 -21.496086 -18.233410 -34.814277 21.332757 -37.505798 -2.039436 15.893770 18.543661 19.083400 21.599703 7.086572 -0.000000 -0.000000 0.000002 54.480765 -0.993288 25.166474 1.651466 -12.840348 -1.235743 -7.443442 -13.165276 -9.510026 -0.000002 0.000001 -0.000003 13.412609 0.351166 24.066549 -0.121405 -0.025194 -0.002385 0.656882 2.836042 -30.990344 0.000000 0.000003 0.000001 5.343196 21.980857 22.626202 -11.015063 3.840778 -31.799694 -10.481837 5.530148 1.435726 0.000000 0.000000 0.000002 2.820587 43.855617 -15.441885 -0.001702 -0.004655 -0.000441 0.035815 0.677511 -6.935205 0.000000 -0.000001 -0.000002 0.424090 -11.500221 -20.882221 -17.246921 -55.661141 21.985460 -13.180661 51.985239 10.486746 -71.179047 -0.030120 1.174577 2.460966 3.653954 24.294892 7.176500 -11.407780 -15.539312 15.506423 -21.131360 -8.536907 0.000000 0.000000 -0.000000 52.070039 -0.786704 -5.000090 -2.279202 10.943986 17.978303 -7.259877 11.411037 15.411728 0.000002 0.000001 0.000001 19.160916 -1.758358 -10.223258 -1.136186 -2.203364 19.978539 -0.484740 -3.596902 30.753251 -0.000001 -0.000001 0.000002 14.106737 -14.398715 -13.238426 -8.773147 -5.449478 41.301993 -7.084028 -8.155591 12.050253 -0.000001 -0.000001 0.000001 11.662178 -36.576968 49.153494 -0.000674 0.005420 0.000513 0.574006 -2.433320 26.525636 -0.000003 -0.000001 -0.000001 -28.847359 1.789151 27.556396 39.034063 -5.771080 -9.111743 -11.214132 -4.494146 -12.046065 -3.785649 -12.890012 -1.606102 0.000001 0.000000 -0.000000 -33.225670 -13.147569 -24.282117 38.640945 9.308815 -1.679528 -8.281797 1.514881 15.429566 -5.691056 9.708877 12.423295 0.000000 0.000000 0.000000 
1.547316 81.831047 3.964220 0.533669 -0.515099 -1.406368 11.826258 1.145457 -0.905939 1.834255 3.250379 -1.030064 3.535864 3.005825 -1.309888 1.674216 1.308379 -11.593047 -13.363391 2.579339 -1.360975 -0.000000 -0.000000 0.000001 -0.514499 4.481399 22.409548 -73.888877 45.651106 10.929278 -4.492300 -41.146163 -17.315877 -56.102095 -21.516523 -18.067679 -35.599369 22.276764 -37.703600 -2.482403 16.067443 18.508988 18.895505 21.195820 7.372141 -0.000001 -0.000000 -0.000001 54.275463 -1.225906 25.420011 1.594822 -12.647280 -1.216534 -7.481894 -13.118123 -8.997627 0.000001 0.000000 -0.000001 13.233391 0.294888 23.943078 -0.119781 -0.025346 -0.002391 0.630590 2.788407 -30.424596 -0.000000 0.000001 -0.000001 5.110034 21.987195 22.355559 -10.869583 3.824709 -31.784733 -10.389573 5.347735 1.821371 -0.000000 0.000000 0.000001 2.486378 44.230874 -15.382160 -0.001772 -0.004521 -0.000422 0.037561 0.690912 -7.079322 0.000000 0.000000 -0.000002 0.712222 -11.052669 -20.640690 -20.038914 -54.205928 20.163161 -13.006678 51.869918 10.561839 -69.910394 1.110174 1.809826 4.189056 4.094140 23.706253 7.570420 -11.543808 -15.302832 15.137398 -20.553255 -8.851849 -0.000001 0.000000 0.000001 52.071340 -0.892257 -3.979989 -2.452923 10.827945 18.440124 -7.198260 11.480471 14.722883 0.000002 -0.000002 -0.000000 19.359326 -1.864638 -9.289537 -1.184549 -2.334918 20.815160 -0.604821 -3.562063 29.744180 0.000003 -0.000001 -0.000001 14.235047 -13.884970 -12.387613 -8.531277 -5.430442 41.290693 -6.904257 -7.974715 12.073510 0.000001 0.000001 -0.000001 10.308342 -36.870782 49.109842 -0.000696 0.005149 0.000483 0.608634 -2.500541 27.331741 -0.000002 -0.000000 0.000000 -28.882462 1.803758 27.605350 39.214886 -5.753381 -9.096086 -11.235892 -4.613083 -12.009248 -3.788336 -12.889952 -1.606505 0.000000 0.000000 0.000000 -33.172234 -13.168622 -24.306690 38.680335 9.336132 -1.682119 -8.239674 1.526365 15.459276 -5.674117 9.710383 12.422364 -0.000000 -0.000000 0.000000 
1.606801 81.773178 3.903052 0.360237 -0.515776 -1.435578 11.833397 1.117176 -0.938226 1.945797 3.168535 -1.037201 3.585159 2.919215 -1.314016 1.957527 1.176748 -11.551770 -13.750999 2.718736 -1.426457 0.000000 -0.000001 0.000001 -0.151484 3.721372 22.052447 -73.778426 44.093150 10.898434 -4.255962 -40.807122 -17.280568 -56.092345 -21.588234 -17.984177 -36.329670 23.189141 -37.870151 -2.937004 16.254288 18.472474 18.686971 20.787507 7.671851 -0.000000 0.000001 -0.000005 54.002631 -1.520253 25.618923 1.518830 -12.437547 -1.195701 -7.530275 -13.042657 -8.536849 0.000002 -0.000001 0.000001 13.026257 0.233137 23.744910 -0.118046 -0.025375 -0.002399 0.606072 2.742446 -29.882535 0.000000 0.000002 -0.000002 4.882569 21.980592 22.004856 -10.704852 3.816105 -31.800261 -10.274951 5.175646 2.146051 0.000002 0.000002 -0.000001 2.160624 44.586454 -15.358039 -0.001846 -0.004399 -0.000413 0.040233 0.711084 -7.295890 0.000000 -0.000000 -0.000004 1.023470 -10.553599 -20.398742 -22.784224 -52.656261 18.440688 -13.390754 51.738372 11.136693 -68.190266 2.203743 2.434149 5.977823 4.437852 23.109516 7.947313 -11.685141 -15.062579 14.795001 -20.058821 -9.159577 0.000003 -0.000000 -0.000000 52.001348 -0.974247 -2.894452 -2.625103 10.703928 18.922604 -7.134098 11.544767 14.053308 -0.000001 -0.000001 -0.000002 19.492655 -2.005778 -8.279187 -1.222051 -2.471833 21.685180 -0.717521 -3.523405 28.745620 0.000001 -0.000000 0.000000 14.300478 -13.406889 -11.443590 -8.265528 -5.415799 41.280970 -6.710830 -7.784766 12.124300 0.000001 0.000001 -0.000002 8.787549 -37.129974 48.857863 -0.000786 0.004880 0.000460 0.643450 -2.565903 28.121477 -0.000001 -0.000001 -0.000000 -28.850200 1.829647 27.628667 39.386948 -5.733785 -9.074668 -11.273161 -4.706561 -11.977427 -3.794019 -12.889812 -1.607461 -0.000000 0.000000 0.000000 -33.100149 -13.191145 -24.352111 38.732398 9.361136 -1.699368 -8.205083 1.571122 15.492831 -5.656770 9.711685 12.421420 -0.000001 0.000000 0.000000 
1.660657 81.719391 3.845264 0.164744 -0.527632 -1.451617 11.842921 1.083311 -0.958888 2.062618 3.065079 -1.034035 3.634466 2.812001 -1.305913 2.225443 1.073652 -11.555958 -14.106076 2.792007 -1.458443 0.000001 0.000000 -0.000000 0.166236 3.050479 21.753504 -73.590719 42.456797 10.631320 -3.817352 -40.355244 -17.068183 -56.144271 -21.730974 -18.026356 -37.007061 24.069450 -38.006246 -3.402419 16.453685 18.434713 18.458842 20.374944 7.984425 0.000000 0.000000 0.000001 53.664571 -1.873673 25.763417 1.424446 -12.212102 -1.173345 -7.588329 -12.940091 -8.125783 0.000001 0.000001 -0.000001 12.792157 0.167159 23.474783 -0.116131 -0.025229 -0.002373 0.583228 2.698144 -29.363516 -0.000000 -0.000005 -0.000001 4.660513 21.962745 21.577298 -10.521913 3.814443 -31.845187 -10.139277 5.013619 2.412031 0.000000 0.000000 -0.000000 1.844041 44.923056 -15.368911 -0.001932 -0.004276 -0.000406 0.043867 0.737715 -7.581914 0.000000 -0.000000 -0.000001 1.393918 -9.983147 -20.086084 -25.549226 -51.014987 16.713623 -14.045871 51.654033 11.989853 -66.198214 3.240427 3.137966 7.813043 4.695988 22.520020 8.299958 -11.815765 -14.821024 14.469949 -19.625444 -9.464345 -0.000001 0.000000 0.000000 51.855421 -1.028940 -1.748386 -2.793007 10.573667 19.419297 -7.067936 11.604065 13.408498 -0.000000 -0.000001 0.000002 19.556744 -2.177481 -7.194212 -1.247910 -2.612197 22.580628 -0.821620 -3.481015 27.764179 -0.000004 -0.000000 -0.000000 14.296739 -12.964625 -10.407901 -7.976412 -5.403503 41.269553 -6.503643 -7.586540 12.205736 0.000001 0.000000 0.000000 7.113563 -37.333517 48.412521 -0.000874 0.004581 0.000438 0.678271 -2.629174 28.892052 0.000001 -0.000001 -0.000000 -28.770994 1.854335 27.630359 39.544910 -5.710455 -9.039646 -11.317141 -4.774668 -11.959663 -3.801921 -12.889624 -1.608844 -0.000000 0.000001 0.000000 -33.014744 -13.212211 -24.400791 38.790167 9.383028 -1.726849 -8.174512 1.631240 15.524397 -5.644864 9.712046 12.421101 -0.000000 0.000000 0.000001 
